# xmcd
#
# Track frame offsets:
# 150
# 12133
# 22937
# 30822
# 42674
# 58303
# 69114
# 80234
# 90748
# 99462
# 107632
# 117608
# 128065
#
# Disc length: 2116 seconds
#
#
# Revision: 0
# Processed by: cddbd v1.5.1PL0 Copyright (c) Steve Scherf et al.
# Submitted via: FreeRIP 2.90 
#
DISCID=a308420d
DTITLE=Bop Kings - Rock It Too the Moon
DYEAR=2004
DGENRE=Western Swing
TTITLE0=Fool With The Blues
TTITLE1=Snake Eyed Baby
TTITLE2=Seein' Double
TTITLE3=Blue Moon Bop
TTITLE4=Devil on My Shoulder
TTITLE5=Hepcat Jive
TTITLE6=Toobin' Boogie
TTITLE7=Cold Lonesome Memories
TTITLE8=Brylecream Boogie
TTITLE9=Hepgal
TTITLE10=Hoppin' Mad Daddy
TTITLE11=Duck Duck Goose
TTITLE12=Snake Eyed Baby (Alternate)
EXTD=
EXTT0=
EXTT1=
EXTT2=
EXTT3=
EXTT4=
EXTT5=
EXTT6=
EXTT7=
EXTT8=
EXTT9=
EXTT10=
EXTT11=
EXTT12=
PLAYORDER=
